<?xml version="1.0" encoding="utf-8"?>
<!-- Generator: Adobe Illustrator 23.0.4, SVG Export Plug-In . SVG Version: 6.00 Build 0)  -->
<!DOCTYPE svg PUBLIC "-//W3C//DTD SVG 1.1//EN" "http://www.w3.org/Graphics/SVG/1.1/DTD/svg11.dtd" [
	<!ENTITY ns_extend "http://ns.adobe.com/Extensibility/1.0/">
	<!ENTITY ns_ai "http://ns.adobe.com/AdobeIllustrator/10.0/">
	<!ENTITY ns_graphs "http://ns.adobe.com/Graphs/1.0/">
	<!ENTITY ns_vars "http://ns.adobe.com/Variables/1.0/">
	<!ENTITY ns_imrep "http://ns.adobe.com/ImageReplacement/1.0/">
	<!ENTITY ns_sfw "http://ns.adobe.com/SaveForWeb/1.0/">
	<!ENTITY ns_custom "http://ns.adobe.com/GenericCustomNamespace/1.0/">
	<!ENTITY ns_adobe_xpath "http://ns.adobe.com/XPath/1.0/">
]>
<svg version="1.1" id="Layer_1" xmlns:x="&ns_extend;" xmlns:i="&ns_ai;" xmlns:graph="&ns_graphs;"
	 xmlns="http://www.w3.org/2000/svg" xmlns:xlink="http://www.w3.org/1999/xlink" x="0px" y="0px" width="20px" height="20px"
	 viewBox="0 0 20 20" style="enable-background:new 0 0 20 20;" xml:space="preserve">
<style type="text/css">
	.st0{fill:none;stroke:#C6C6C5;stroke-miterlimit:10;}
	.st1{fill:#C6C6C5;}
</style>
<metadata>
	<sfw  xmlns="&ns_sfw;">
		<slices></slices>
		<sliceSourceBounds  bottomLeftOrigin="true" height="18" width="17.6" x="1.4" y="-19"></sliceSourceBounds>
	</sfw>
</metadata>
<ellipse class="st0" cx="10.2" cy="10" rx="8.3" ry="8.5"/>
<g>
	<path class="st1" d="M9.6,12.8c0-0.2,0-0.3,0-0.4c0-0.5,0.1-0.9,0.2-1.3c0.1-0.3,0.3-0.6,0.5-0.8c0.2-0.2,0.5-0.5,0.9-0.9
		c0.4-0.4,0.7-0.7,0.9-0.9c0.1-0.2,0.2-0.5,0.2-0.8c0-0.5-0.2-0.9-0.6-1.3s-0.9-0.6-1.4-0.6c-0.5,0-1,0.2-1.4,0.5S8.3,7.1,8.2,7.9
		L6.8,7.7C7,6.7,7.3,6,7.9,5.5c0.6-0.5,1.4-0.8,2.3-0.8c1,0,1.8,0.3,2.5,0.8c0.6,0.6,0.9,1.2,0.9,2c0,0.5-0.1,0.9-0.3,1.3
		s-0.6,0.9-1.3,1.4c-0.4,0.4-0.7,0.6-0.8,0.8c-0.1,0.2-0.2,0.4-0.3,0.6s-0.1,0.6-0.1,1.1H9.6z M9.5,15.4v-1.5H11v1.5H9.5z"/>
</g>
</svg>
